<svg width="1512" height="5536" viewBox="0 0 1512 5536" fill="none" xmlns="http://www.w3.org/2000/svg">
<g filter="url(#filter0_f_131_3)">
<path d="M142.5 316C353.749 316 525 206.757 525 72C525 -62.7575 353.749 -172 142.5 -172C-68.7489 -172 -240 -62.7575 -240 72C-240 206.757 -68.7489 316 142.5 316Z" fill="#F2D8FF"/>
<path d="M1331 851C1476.25 851 1594 752.95 1594 632C1594 511.05 1476.25 413 1331 413C1185.75 413 1068 511.05 1068 632C1068 752.95 1185.75 851 1331 851Z" fill="#C8D7FF"/>
<path d="M130 3092C275.251 3092 393 2993.95 393 2873C393 2752.05 275.251 2654 130 2654C-15.2509 2654 -133 2752.05 -133 2873C-133 2993.95 -15.2509 3092 130 3092Z" fill="#C8D7FF"/>
<path d="M777 5578C922.251 5578 1040 5479.95 1040 5359C1040 5238.05 922.251 5140 777 5140C631.749 5140 514 5238.05 514 5359C514 5479.95 631.749 5578 777 5578Z" fill="#C8D7FF"/>
<path d="M494 4507C734.796 4507 930 4371.57 930 4204.5C930 4037.43 734.796 3902 494 3902C253.204 3902 58 4037.43 58 4204.5C58 4371.57 253.204 4507 494 4507Z" fill="#E0C8FF"/>
<path d="M346 1857C548.136 1857 712 1679.93 712 1461.5C712 1243.07 548.136 1066 346 1066C143.864 1066 -20 1243.07 -20 1461.5C-20 1679.93 143.864 1857 346 1857Z" fill="#D0EBFF"/>
<path d="M1343 3917C1545.14 3917 1709 3739.93 1709 3521.5C1709 3303.07 1545.14 3126 1343 3126C1140.86 3126 977 3303.07 977 3521.5C977 3739.93 1140.86 3917 1343 3917Z" fill="#B6E0FF"/>
<path d="M1001 2520C1203.14 2520 1367 2376.51 1367 2199.5C1367 2022.49 1203.14 1879 1001 1879C798.864 1879 635 2022.49 635 2199.5C635 2376.51 798.864 2520 1001 2520Z" fill="#F6D0FF"/>
</g>
<defs>
<filter id="filter0_f_131_3" x="-458" y="-390" width="2385" height="6186" filterUnits="userSpaceOnUse" color-interpolation-filters="sRGB">
<feFlood flood-opacity="0" result="BackgroundImageFix"/>
<feBlend mode="normal" in="SourceGraphic" in2="BackgroundImageFix" result="shape"/>
<feGaussianBlur stdDeviation="109" result="effect1_foregroundBlur_131_3"/>
</filter>
</defs>
</svg>
